M48
; DRILL file {KiCad 9.0.0} date 2025-05-26T00:17:25-0400
; FORMAT={-:-/ absolute / metric / decimal}
; #@! TF.CreationDate,2025-05-26T00:17:25-04:00
; #@! TF.GenerationSoftware,Kicad,Pcbnew,9.0.0
; #@! TF.FileFunction,Plated,1,2,PTH
FMAT,2
METRIC
; #@! TA.AperFunction,Plated,PTH,ViaDrill
T1C0.100
; #@! TA.AperFunction,Plated,PTH,ViaDrill
T2C0.400
; #@! TA.AperFunction,Plated,PTH,ComponentDrill
T3C0.730
; #@! TA.AperFunction,Plated,PTH,ComponentDrill
T4C1.000
; #@! TA.AperFunction,Plated,PTH,ComponentDrill
T5C1.100
; #@! TA.AperFunction,Plated,PTH,ComponentDrill
T6C1.300
; #@! TA.AperFunction,Plated,PTH,ComponentDrill
T7C2.700
%
G90
G05
T1
X160.834Y141.135
X161.097Y141.56
X161.338Y142.0
X161.605Y142.436
X161.854Y142.869
X162.088Y143.311
X162.341Y143.742
X162.603Y144.169
X162.841Y144.608
X163.096Y145.039
X163.354Y145.467
X163.592Y145.908
T2
X-65.784Y152.372
X-54.422Y193.219
X-53.784Y169.172
X-53.784Y150.172
X-47.294Y207.092
X-34.784Y169.172
X-34.784Y150.172
X-27.784Y192.962
X-27.104Y181.632
X-27.09Y146.538
X-18.194Y139.022
X-15.824Y173.922
X-15.784Y154.922
X-12.44Y163.438
X-11.244Y162.772
X-8.784Y195.552
X-8.784Y192.412
X-8.784Y178.392
X-8.784Y159.432
X0.28Y213.207
X2.7Y141.138
X3.216Y157.297
X7.256Y195.152
X7.476Y154.052
X8.086Y209.192
X8.416Y185.792
X9.93Y144.138
X10.216Y195.122
X10.216Y176.072
X10.236Y180.002
X13.773Y135.247
X17.996Y199.322
X19.48Y178.468
X22.216Y154.922
X22.236Y192.942
X22.97Y176.868
X24.656Y194.492
X24.656Y181.752
X26.915Y176.733
X28.926Y200.072
X29.216Y192.747
X29.216Y173.747
X31.106Y159.312
X31.196Y157.892
X33.0Y199.068
X33.606Y201.752
X39.64Y195.808
X41.216Y171.547
X41.216Y152.547
X41.686Y160.362
X41.95Y158.718
X42.13Y167.348
X42.64Y175.268
X43.68Y178.478
X44.82Y186.088
X45.64Y180.768
X45.93Y179.098
X46.33Y186.108
X53.97Y176.728
X58.68Y172.508
X58.71Y192.748
X58.71Y180.048
X58.71Y174.968
X65.27Y159.138
X70.17Y166.048
X76.5Y180.068
X76.55Y187.668
X76.55Y185.128
X76.55Y182.588
X76.55Y172.428
X80.9Y174.998
X81.32Y151.398
X84.287Y141.37
X86.947Y134.22
X121.188Y198.71
X127.667Y198.75
X137.267Y173.18
X137.423Y172.204
X138.637Y189.92
X138.748Y181.8
X139.51Y185.919
X143.017Y192.88
X143.017Y182.454
X143.017Y170.02
X143.017Y167.48
X150.157Y171.47
X151.577Y183.06
X152.828Y175.91
X152.838Y172.44
X153.657Y159.66
X153.812Y172.205
X154.477Y166.18
X154.968Y159.96
X157.017Y166.18
X160.857Y190.34
X160.857Y187.8
X160.857Y185.26
X160.857Y182.74
X160.857Y175.1
X160.857Y172.56
X160.857Y170.02
X160.857Y167.48
X164.347Y193.76
X164.992Y127.851
X165.107Y176.159
X166.54Y169.43
X167.011Y174.893
X167.442Y171.24
X167.442Y163.55
X167.597Y182.88
X171.778Y192.747
X171.778Y173.747
X171.778Y154.747
X176.959Y130.296
X178.397Y181.01
X186.347Y181.01
X190.778Y195.122
X190.778Y176.122
X190.778Y157.122
X197.663Y136.484
X209.778Y197.497
X209.778Y178.497
X209.778Y159.497
X219.188Y139.022
X228.778Y195.122
X228.778Y176.122
X228.778Y157.122
X247.777Y190.372
X247.777Y171.372
X247.777Y152.372
X266.748Y171.372
X266.777Y190.372
X266.777Y152.372
T3
X-69.564Y204.052
X-65.252Y208.25
X-65.034Y203.802
X-62.392Y196.908
X-58.084Y206.426
X-58.081Y201.106
X-57.862Y196.658
X-53.819Y210.499
X-53.732Y206.28
X-50.912Y199.282
X-46.647Y203.355
X-46.561Y199.136
X-43.954Y206.654
X-43.234Y210.264
X-38.904Y210.294
X-36.782Y199.51
X-36.062Y203.12
X-33.884Y209.704
X-31.732Y203.15
X-26.712Y202.56
X-26.134Y208.034
X-25.794Y211.974
X-21.582Y211.91
X-18.962Y200.89
X-18.622Y204.83
X-16.974Y211.504
X-14.411Y204.766
X-10.144Y210.524
X-9.803Y204.36
X-5.684Y210.294
X-4.025Y213.095
X-2.972Y203.38
X1.487Y203.15
X1.806Y211.214
X3.146Y205.952
X8.977Y204.07
X11.348Y208.08
X11.446Y212.024
X15.826Y211.974
X18.519Y200.936
X18.617Y204.88
X21.355Y210.685
X22.997Y204.83
X28.526Y203.542
X189.014Y211.224
X192.296Y211.224
X195.577Y211.224
X196.186Y204.08
X198.858Y211.224
X199.467Y204.08
X202.139Y211.224
X202.749Y204.08
X205.421Y211.224
X206.03Y204.08
X208.702Y211.224
X209.311Y204.08
X211.983Y211.224
X212.592Y204.08
X215.264Y211.224
X215.874Y204.08
X218.546Y211.224
X219.155Y204.08
X221.827Y211.224
X222.436Y204.08
X225.108Y211.224
X225.718Y204.08
X228.389Y211.224
X228.999Y204.08
X231.671Y211.224
X232.28Y204.08
X234.952Y211.224
X235.561Y204.08
X238.233Y211.224
X238.843Y204.08
X241.514Y211.224
X242.124Y204.08
X244.796Y211.224
X245.405Y204.08
X248.077Y211.224
X248.686Y204.08
X251.358Y211.224
X251.968Y204.08
X254.64Y211.224
X255.249Y204.08
X257.921Y211.224
X258.53Y204.08
X261.811Y204.08
X265.093Y204.08
T4
X56.2Y147.818
X56.2Y145.278
X58.74Y147.818
X58.74Y145.278
X61.28Y147.818
X61.28Y145.278
X62.55Y169.888
X63.82Y147.818
X63.82Y145.278
X66.36Y190.208
X66.36Y147.818
X66.36Y145.278
X68.9Y190.208
X68.9Y147.818
X68.9Y145.278
X71.44Y147.818
X71.44Y145.278
X73.98Y147.818
X73.98Y145.278
X76.52Y147.818
X76.52Y145.278
X79.06Y147.818
X79.06Y145.278
X146.857Y170.02
X150.667Y190.34
X153.207Y190.34
T5
X120.398Y213.08
X123.828Y219.09
X124.797Y210.54
X128.227Y216.55
X129.197Y208.0
X132.626Y214.01
T6
X68.767Y134.95
X75.267Y134.95
X132.167Y196.43
X138.667Y196.43
T7
X47.13Y196.528
X47.13Y145.528
X88.13Y196.528
X88.13Y145.528
M30
