G04 #@! TF.GenerationSoftware,KiCad,Pcbnew,9.0.0*
G04 #@! TF.CreationDate,2025-05-26T00:17:28-04:00*
G04 #@! TF.ProjectId,sandevistan42_longboioled1,73616e64-6576-4697-9374-616e34325f6c,0.0.1*
G04 #@! TF.SameCoordinates,Original*
G04 #@! TF.FileFunction,Copper,L2,Bot*
G04 #@! TF.FilePolarity,Positive*
%FSLAX46Y46*%
G04 Gerber Fmt 4.6, Leading zero omitted, Abs format (unit mm)*
G04 Created by KiCad (PCBNEW 9.0.0) date 2025-05-26 00:17:28*
%MOMM*%
%LPD*%
G01*
G04 APERTURE LIST*
G04 Aperture macros list*
%AMRoundRect*
0 Rectangle with rounded corners*
0 $1 Rounding radius*
0 $2 $3 $4 $5 $6 $7 $8 $9 X,Y pos of 4 corners*
0 Add a 4 corners polygon primitive as box body*
4,1,4,$2,$3,$4,$5,$6,$7,$8,$9,$2,$3,0*
0 Add four circle primitives for the rounded corners*
1,1,$1+$1,$2,$3*
1,1,$1+$1,$4,$5*
1,1,$1+$1,$6,$7*
1,1,$1+$1,$8,$9*
0 Add four rect primitives between the rounded corners*
20,1,$1+$1,$2,$3,$4,$5,0*
20,1,$1+$1,$4,$5,$6,$7,0*
20,1,$1+$1,$6,$7,$8,$9,0*
20,1,$1+$1,$8,$9,$2,$3,0*%
%AMRotRect*
0 Rectangle, with rotation*
0 The origin of the aperture is its center*
0 $1 length*
0 $2 width*
0 $3 Rotation angle, in degrees counterclockwise*
0 Add horizontal line*
21,1,$1,$2,0,0,$3*%
G04 Aperture macros list end*
G04 #@! TA.AperFunction,ComponentPad*
%ADD10C,2.000000*%
G04 #@! TD*
G04 #@! TA.AperFunction,ComponentPad*
%ADD11RoundRect,0.250000X-0.521845X0.000000X0.000000X-0.521845X0.521845X0.000000X0.000000X0.521845X0*%
G04 #@! TD*
G04 #@! TA.AperFunction,ComponentPad*
%ADD12C,1.238000*%
G04 #@! TD*
G04 #@! TA.AperFunction,SMDPad,CuDef*
%ADD13RoundRect,0.250000X-1.025000X-1.000000X1.025000X-1.000000X1.025000X1.000000X-1.025000X1.000000X0*%
G04 #@! TD*
G04 #@! TA.AperFunction,SMDPad,CuDef*
%ADD14RoundRect,0.250000X-1.183076X-0.806818X0.835780X-1.162797X1.183076X0.806818X-0.835780X1.162797X0*%
G04 #@! TD*
G04 #@! TA.AperFunction,SMDPad,CuDef*
%ADD15RoundRect,0.250000X-1.305205X-0.589122X0.621165X-1.290263X1.305205X0.589122X-0.621165X1.290263X0*%
G04 #@! TD*
G04 #@! TA.AperFunction,SMDPad,CuDef*
%ADD16RoundRect,0.250000X0.353525X-1.387676X1.378525X0.387676X-0.353525X1.387676X-1.378525X-0.387676X0*%
G04 #@! TD*
G04 #@! TA.AperFunction,ComponentPad*
%ADD17C,1.800000*%
G04 #@! TD*
G04 #@! TA.AperFunction,SMDPad,CuDef*
%ADD18RoundRect,0.250000X-0.835780X-1.162797X1.183076X-0.806818X0.835780X1.162797X-1.183076X0.806818X0*%
G04 #@! TD*
G04 #@! TA.AperFunction,ComponentPad*
%ADD19RoundRect,0.250000X0.521845X0.000000X0.000000X0.521845X-0.521845X0.000000X0.000000X-0.521845X0*%
G04 #@! TD*
G04 #@! TA.AperFunction,ComponentPad*
%ADD20C,4.800000*%
G04 #@! TD*
G04 #@! TA.AperFunction,ComponentPad*
%ADD21RoundRect,0.270000X0.630000X0.630000X-0.630000X0.630000X-0.630000X-0.630000X0.630000X-0.630000X0*%
G04 #@! TD*
G04 #@! TA.AperFunction,ComponentPad*
%ADD22RoundRect,0.270000X-0.860596X-0.230596X0.230596X-0.860596X0.860596X0.230596X-0.230596X0.860596X0*%
G04 #@! TD*
G04 #@! TA.AperFunction,SMDPad,CuDef*
%ADD23RoundRect,0.250000X-1.378525X0.387676X-0.353525X-1.387676X1.378525X-0.387676X0.353525X1.387676X0*%
G04 #@! TD*
G04 #@! TA.AperFunction,SMDPad,CuDef*
%ADD24RoundRect,0.250000X-0.621165X-1.290263X1.305205X-0.589122X0.621165X1.290263X-1.305205X0.589122X0*%
G04 #@! TD*
G04 #@! TA.AperFunction,SMDPad,CuDef*
%ADD25RotRect,0.280000X1.250000X60.000000*%
G04 #@! TD*
G04 #@! TA.AperFunction,SMDPad,CuDef*
%ADD26RotRect,1.800000X2.000000X60.000000*%
G04 #@! TD*
G04 #@! TA.AperFunction,ViaPad*
%ADD27C,0.600000*%
G04 #@! TD*
G04 #@! TA.AperFunction,ViaPad*
%ADD28C,0.300000*%
G04 #@! TD*
G04 #@! TA.AperFunction,Conductor*
%ADD29C,0.250000*%
G04 #@! TD*
G04 APERTURE END LIST*
D10*
X68767500Y134950000D03*
X75267500Y134950000D03*
D11*
X-69563511Y204051672D03*
D12*
X-62391681Y196908126D03*
D11*
X-65033511Y203801672D03*
D12*
X-57861681Y196658126D03*
D11*
X-65252500Y208250000D03*
D12*
X-58080670Y201106454D03*
D11*
X-58083886Y206425586D03*
D12*
X-50912056Y199282040D03*
D11*
X-53732500Y206280000D03*
D12*
X-46560670Y199136454D03*
D11*
X-53819299Y210498515D03*
D12*
X-46647469Y203354969D03*
D11*
X-43954330Y206653546D03*
D12*
X-36782500Y199510000D03*
D11*
X-43234330Y210263546D03*
D12*
X-36062500Y203120000D03*
D11*
X-38904330Y210293546D03*
D12*
X-31732500Y203150000D03*
D11*
X-33884330Y209703546D03*
D12*
X-26712500Y202560000D03*
D11*
X-26134330Y208033546D03*
D12*
X-18962500Y200890000D03*
D11*
X-25794330Y211973546D03*
D12*
X-18622500Y204830000D03*
D11*
X-21582500Y211910000D03*
D12*
X-14410670Y204766454D03*
D11*
X-16974330Y211503546D03*
D12*
X-9802500Y204360000D03*
D11*
X-10144330Y210523546D03*
D12*
X-2972500Y203380000D03*
D11*
X-5684330Y210293546D03*
D12*
X1487500Y203150000D03*
D11*
X-4025341Y213095218D03*
D12*
X3146489Y205951672D03*
D11*
X1805670Y211213546D03*
D12*
X8977500Y204070000D03*
D11*
X11445670Y212023546D03*
D12*
X18617500Y204880000D03*
D11*
X15825670Y211973546D03*
D12*
X22997500Y204830000D03*
D11*
X21354659Y210685218D03*
D12*
X28526489Y203541672D03*
D13*
X-27783511Y195121672D03*
X-15783511Y192921672D03*
X-27783511Y176121672D03*
X-15783511Y173921672D03*
X-27783511Y157121672D03*
X-15783511Y154921672D03*
X-18193511Y139021672D03*
X-6193511Y136821672D03*
X-8783511Y197496672D03*
X3216489Y195296672D03*
X-8783511Y178496672D03*
X3216489Y176296672D03*
X-8783511Y159496672D03*
X3216489Y157296672D03*
D14*
X3437500Y137700000D03*
X14873167Y133449645D03*
D13*
X10216489Y195121672D03*
X22216489Y192921672D03*
X10216489Y176121672D03*
X22216489Y173921672D03*
X10216489Y157121672D03*
X22216489Y154921672D03*
D15*
X24457500Y132689999D03*
X34981367Y126518434D03*
D13*
X29216489Y173746672D03*
X41216489Y171546672D03*
X29216489Y154746673D03*
X41216488Y152546671D03*
D16*
X39502245Y121788784D03*
X47407500Y131081089D03*
D13*
X-65783511Y190371672D03*
X-53783511Y188171672D03*
D17*
X66359716Y190208445D03*
X68899716Y190208445D03*
X62549716Y169888445D03*
D13*
X247777500Y190371672D03*
X259777500Y188171672D03*
D18*
X197662835Y136484463D03*
X209862554Y136401664D03*
D13*
X209777500Y159496672D03*
X221777500Y157296672D03*
X190777500Y195121672D03*
X202777500Y192921672D03*
X190777500Y176121672D03*
X202777500Y173921672D03*
D19*
X248686320Y204080000D03*
D12*
X241514490Y211223546D03*
D19*
X209311200Y204080000D03*
D12*
X202139370Y211223546D03*
D20*
X88129716Y145528445D03*
X88129716Y196528445D03*
X47129716Y145528445D03*
X47129716Y196528445D03*
D21*
X79059716Y145278445D03*
D17*
X79059716Y147818445D03*
X76519716Y145278445D03*
X76519716Y147818445D03*
X73979716Y145278445D03*
X73979716Y147818445D03*
X71439716Y145278445D03*
X71439716Y147818445D03*
X68899716Y145278445D03*
X68899716Y147818445D03*
X66359716Y145278445D03*
X66359716Y147818445D03*
X63819716Y145278445D03*
X63819716Y147818445D03*
X61279716Y145278445D03*
X61279716Y147818445D03*
X58739716Y145278445D03*
X58739716Y147818445D03*
X56199716Y145278445D03*
X56199716Y147818445D03*
D13*
X171777500Y173746672D03*
X183777500Y171546672D03*
D11*
X11347500Y208080000D03*
D12*
X18519330Y200936454D03*
D19*
X261811360Y204080000D03*
D12*
X254639530Y211223546D03*
D13*
X266777500Y152371672D03*
X278777500Y150171672D03*
D19*
X251967580Y204080000D03*
D12*
X244795750Y211223546D03*
D19*
X228998760Y204080000D03*
D12*
X221826930Y211223546D03*
D10*
X138667500Y196430000D03*
X132167500Y196430000D03*
D13*
X190777500Y157121672D03*
X202777500Y154921672D03*
X-46783511Y171371672D03*
X-34783511Y169171672D03*
X-65783511Y152371672D03*
X-53783511Y150171672D03*
X228777500Y195121672D03*
X240777500Y192921672D03*
X228777500Y157121672D03*
X240777500Y154921672D03*
X-46783511Y152371672D03*
X-34783511Y150171672D03*
D22*
X123827500Y219090000D03*
D17*
X128226909Y216550000D03*
X132626318Y214010000D03*
D19*
X238842540Y204080000D03*
D12*
X231670710Y211223546D03*
D19*
X232280020Y204080000D03*
D12*
X225108190Y211223546D03*
D19*
X225717500Y204080000D03*
D12*
X218545670Y211223546D03*
D13*
X171777500Y192746672D03*
X183777500Y190546672D03*
D22*
X120398091Y213080000D03*
D17*
X124797500Y210540000D03*
X129196909Y208000000D03*
D19*
X222436240Y204080000D03*
D12*
X215264410Y211223546D03*
D19*
X219154980Y204080000D03*
D12*
X211983150Y211223546D03*
D13*
X266777500Y190371672D03*
X278777500Y188171672D03*
D19*
X242123800Y204080000D03*
D12*
X234951970Y211223546D03*
D13*
X29216489Y192746672D03*
X41216489Y190546672D03*
D19*
X255248840Y204080000D03*
D12*
X248077010Y211223546D03*
D13*
X209777500Y197496672D03*
X221777500Y195296672D03*
X247777500Y152371672D03*
X259777500Y150171672D03*
D19*
X258530100Y204080000D03*
D12*
X251358270Y211223546D03*
D19*
X206029940Y204080000D03*
D12*
X198858110Y211223546D03*
D13*
X228777500Y176121672D03*
X240777500Y173921672D03*
D19*
X265092620Y204080000D03*
D12*
X257920790Y211223546D03*
D23*
X164991744Y127850962D03*
X169086489Y116358657D03*
D13*
X266777500Y171371672D03*
X278777500Y169171672D03*
X209777500Y178496672D03*
X221777500Y176296672D03*
D19*
X196186160Y204080000D03*
D12*
X189014330Y211223546D03*
D13*
X-65783511Y171371672D03*
X-53783511Y169171672D03*
X247777500Y171371672D03*
X259777500Y169171672D03*
D19*
X215873720Y204080000D03*
D12*
X208701890Y211223546D03*
D19*
X199467420Y204080000D03*
D12*
X192295590Y211223546D03*
D24*
X176958641Y130295858D03*
X188987397Y132332776D03*
D13*
X219187500Y139021672D03*
X231187500Y136821672D03*
D19*
X245405060Y204080000D03*
D12*
X238233230Y211223546D03*
D19*
X202748680Y204080000D03*
D12*
X195576850Y211223546D03*
D17*
X150667500Y190340000D03*
X153207500Y190340000D03*
X146857500Y170020000D03*
D13*
X-46783511Y190371672D03*
X-34783511Y188171672D03*
D19*
X235561280Y204080000D03*
D12*
X228389450Y211223546D03*
D19*
X212592460Y204080000D03*
D12*
X205420630Y211223546D03*
D13*
X171777500Y154746672D03*
X183777500Y152546672D03*
D25*
X160836553Y141136015D03*
X161086553Y141569028D03*
X161336553Y142002041D03*
X161586553Y142435053D03*
X161836553Y142868066D03*
X162086553Y143301079D03*
X162336553Y143734091D03*
X162586553Y144167104D03*
X162836553Y144600117D03*
X163086553Y145033129D03*
X163336553Y145466142D03*
X163586553Y145899155D03*
D26*
X162127500Y148820001D03*
X157577500Y140939169D03*
D27*
X53969716Y176728445D03*
X39639716Y195808445D03*
X279716Y213206672D03*
X17996489Y199321672D03*
X58709716Y180048445D03*
X8086489Y209191672D03*
X28926489Y200071672D03*
X-47293511Y207091672D03*
X58709716Y174968445D03*
X33606489Y201751672D03*
X44819716Y186088445D03*
X45929716Y179098445D03*
X46329716Y186108445D03*
X58679716Y172508445D03*
X45639716Y180768445D03*
X-54422500Y193218945D03*
X-53783511Y169171672D03*
X-53783511Y150171672D03*
X-34783511Y169171672D03*
X-34783511Y150171672D03*
X-15823511Y173921672D03*
X-15783511Y154921672D03*
X3216489Y157296672D03*
X13773171Y135246626D03*
X22236489Y192941672D03*
X7256489Y195151672D03*
X8416489Y185791672D03*
X22216489Y154921672D03*
X24656489Y194491672D03*
X24656489Y181751672D03*
X84287500Y141370000D03*
X76549716Y187668445D03*
X-65783511Y152371672D03*
X-12440284Y163438445D03*
X76549716Y185128445D03*
X76549716Y182588445D03*
X-27090284Y146538445D03*
X-11243511Y162771672D03*
X41949716Y158718445D03*
X-27103511Y181631672D03*
X70169716Y166048445D03*
X65269716Y159138445D03*
X-18193511Y139021672D03*
X9929716Y144138445D03*
X-27783511Y192961672D03*
X2699716Y141138445D03*
X31196489Y157891672D03*
X7476489Y154051672D03*
X-8783511Y178391672D03*
X41686489Y160361672D03*
X-8783511Y159431672D03*
X-8783511Y195551672D03*
X-8783511Y192411672D03*
X31106489Y159311672D03*
X10236489Y180001672D03*
X42639716Y175268445D03*
X19479716Y178468445D03*
X10216489Y195121672D03*
X26914716Y176733445D03*
X22969716Y176868445D03*
X10216489Y176071672D03*
X29216489Y173746672D03*
X42129716Y167348445D03*
X29216489Y192746672D03*
X58709716Y192748445D03*
X86947500Y134220000D03*
X41216489Y171546672D03*
X41216489Y152546672D03*
X81319716Y151398445D03*
X80899716Y174998445D03*
X76499716Y180068445D03*
X76549716Y172428445D03*
X43680489Y178478445D03*
X32999716Y199068445D03*
X153812500Y172205000D03*
X164347500Y193760000D03*
D28*
X161097500Y141560000D03*
D27*
X152828500Y175910000D03*
X154967500Y159960000D03*
X138637500Y189920000D03*
X151577500Y183060000D03*
X143017500Y192880000D03*
X121187500Y198710000D03*
D28*
X160833531Y141135356D03*
D27*
X127667500Y198750000D03*
X152837500Y172440000D03*
X160857500Y187800000D03*
X153657500Y159660000D03*
D28*
X162341441Y143742412D03*
X163591571Y145907556D03*
D27*
X160857500Y175100000D03*
X167010558Y174893057D03*
D28*
X161337500Y142000000D03*
D27*
X137267500Y173180000D03*
X138747500Y181800000D03*
X160857500Y167480000D03*
D28*
X163095627Y145039436D03*
D27*
X167442500Y163550000D03*
X166540500Y169430000D03*
X160857500Y170020000D03*
D28*
X162602811Y144168661D03*
D27*
X160857500Y172560000D03*
X167442500Y171240000D03*
D28*
X163354432Y145467366D03*
X161854365Y142869330D03*
X162088184Y143311293D03*
D27*
X165106652Y176159152D03*
X167597500Y182880000D03*
X160857500Y190340000D03*
X266747500Y171371672D03*
X266777500Y152371672D03*
X160857500Y185260000D03*
X266777500Y190371672D03*
X186347500Y181010000D03*
X247777500Y190371672D03*
X160857500Y182740000D03*
X178397500Y181010000D03*
X247777500Y171371672D03*
X247777500Y152371672D03*
X228777500Y157121672D03*
X228777500Y195121672D03*
X154477500Y166180000D03*
X228777500Y176121672D03*
X219187500Y139021672D03*
X209777500Y178496672D03*
X209777500Y197496672D03*
X157017500Y166180000D03*
X209777500Y159496672D03*
X197662835Y136484463D03*
X190777500Y176121672D03*
X176958641Y130295858D03*
X139509589Y185919000D03*
X143017500Y170020000D03*
X190777500Y157121672D03*
X190777500Y195121672D03*
X150157500Y171470000D03*
X164991744Y127850962D03*
X143017500Y167480000D03*
X171777500Y173746672D03*
X171777500Y192746672D03*
X171777500Y154746672D03*
D28*
X162840982Y144608293D03*
D27*
X137422501Y172203799D03*
D28*
X161605121Y142435879D03*
D27*
X143017500Y182454000D03*
D29*
X27899716Y195808445D02*
X39639716Y195808445D01*
X16989716Y200348445D02*
X16989716Y201848445D01*
X-8601637Y210523546D02*
X-9933669Y210523546D01*
X17579716Y202538445D02*
X19659716Y202538445D01*
X-58159285Y206350187D02*
X-56291027Y208218445D01*
X-43954330Y206653546D02*
X-27378954Y206653546D01*
X16989716Y201848445D02*
X16939716Y201898445D01*
X-500284Y212426672D02*
X-500284Y212414899D01*
X58719716Y180048445D02*
X58709716Y180048445D01*
X57269716Y180028445D02*
X58739716Y180028445D01*
X-27378954Y206653546D02*
X-26064897Y207967603D01*
X-7591738Y211533445D02*
X-8601637Y210523546D01*
X16939716Y201898445D02*
X17579716Y202538445D01*
X21909716Y201798445D02*
X27899716Y195808445D01*
X17996489Y199321672D02*
X17996489Y199341672D01*
X-1381738Y211533445D02*
X-7591738Y211533445D01*
X-69563511Y204051672D02*
X-68013511Y204051672D01*
X17996489Y199341672D02*
X16989716Y200348445D01*
X-9933669Y210523546D02*
X-9945341Y210535218D01*
X53969716Y176728445D02*
X57269716Y180028445D01*
X279716Y213206672D02*
X-500284Y212426672D01*
X-68013511Y204051672D02*
X-65714996Y206350187D01*
X-56291027Y208218445D02*
X-45519229Y208218445D01*
X19659716Y202538445D02*
X20399716Y201798445D01*
X-45519229Y208218445D02*
X-43954330Y206653546D01*
X-26064897Y207967603D02*
X-26064897Y208087258D01*
X-500284Y212414899D02*
X-1381738Y211533445D01*
X-65714996Y206350187D02*
X-58159285Y206350187D01*
X20399716Y201798445D02*
X21909716Y201798445D01*
X58739716Y180028445D02*
X58719716Y180048445D01*
X13574615Y212023546D02*
X25526489Y200071672D01*
X-53692313Y206320187D02*
X-48064996Y206320187D01*
X-48064996Y206320187D02*
X-47293511Y207091672D01*
X-56640828Y203371672D02*
X-53692313Y206320187D01*
X8086489Y209191672D02*
X8613796Y209191672D01*
X8613796Y209191672D02*
X11445670Y212023546D01*
X-65033511Y203801672D02*
X-64603511Y203371672D01*
X11445670Y212023546D02*
X13574615Y212023546D01*
X-64603511Y203371672D02*
X-56640828Y203371672D01*
X25526489Y200071672D02*
X28926489Y200071672D01*
X58709716Y174968445D02*
X58709716Y174838445D01*
X33606489Y201751672D02*
X35576489Y201751672D01*
X-65170828Y208331672D02*
X-63092313Y210410187D01*
X-51989369Y212328445D02*
X-41030284Y212328445D01*
X50059716Y174968445D02*
X45929716Y179098445D01*
X-38937170Y210235331D02*
X-35710828Y213461672D01*
X-63092313Y210410187D02*
X-53907627Y210410187D01*
X58579716Y174968445D02*
X50059716Y174968445D01*
X-35710828Y213461672D02*
X-24073511Y213461672D01*
X-41030284Y212328445D02*
X-38937170Y210235331D01*
X-19245183Y211910000D02*
X-18059965Y213095218D01*
X44819716Y192508445D02*
X44819716Y186088445D01*
X-18059965Y213095218D02*
X-4025341Y213095218D01*
X-65283511Y208331672D02*
X-65170828Y208331672D01*
X35576489Y201751672D02*
X44819716Y192508445D01*
X58709716Y174838445D02*
X58579716Y174968445D01*
X-24073511Y213461672D02*
X-22521839Y211910000D01*
X-22521839Y211910000D02*
X-19245183Y211910000D01*
X-53907627Y210410187D02*
X-51989369Y212328445D01*
X-62391681Y196549181D02*
X-54014172Y188171672D01*
X-62391681Y196908126D02*
X-62391681Y196549181D01*
X-54014172Y188171672D02*
X-53783511Y188171672D01*
X58679716Y172508445D02*
X50839716Y172508445D01*
X7578363Y211213546D02*
X10186489Y213821672D01*
X21354659Y210685218D02*
X24042282Y210685218D01*
X35347526Y202618445D02*
X46329716Y191636255D01*
X44979716Y180108445D02*
X45639716Y180768445D01*
X1805670Y208900853D02*
X1805670Y211213546D01*
X-19178609Y209703546D02*
X-17176469Y211705686D01*
X50839716Y172508445D02*
X44979716Y178368445D01*
X24042282Y210685218D02*
X32109055Y202618445D01*
X18218205Y213821672D02*
X21354659Y210685218D01*
X404817Y207500000D02*
X1805670Y208900853D01*
X-33825385Y209703546D02*
X-19178609Y209703546D01*
X46329716Y191636255D02*
X46329716Y186108445D01*
X10186489Y213821672D02*
X18218205Y213821672D01*
X-33943511Y209821672D02*
X-33825385Y209703546D01*
X32109055Y202618445D02*
X35347526Y202618445D01*
X-17176469Y211705686D02*
X-12970783Y207500000D01*
X1805670Y211213546D02*
X7578363Y211213546D01*
X44979716Y178368445D02*
X44979716Y180108445D01*
X-12970783Y207500000D02*
X404817Y207500000D01*
X-54422500Y193218945D02*
X-57861681Y196658126D01*
X-37353511Y190741672D02*
X-40083511Y190741672D01*
X-43973511Y192261672D02*
X-50918480Y199206641D01*
X-40083511Y190741672D02*
X-41603511Y192261672D01*
X-34783511Y188171672D02*
X-37353511Y190741672D01*
X-41603511Y192261672D02*
X-43973511Y192261672D01*
X-20011931Y190961672D02*
X-16723511Y190961672D01*
X-21072931Y192022672D02*
X-20011931Y190961672D01*
X-36819965Y199478126D02*
X-29364511Y192022672D01*
X-16253511Y191431672D02*
X-16253511Y192451672D01*
X-29364511Y192022672D02*
X-21072931Y192022672D01*
X-37011681Y199478126D02*
X-36819965Y199478126D01*
X-16723511Y190961672D02*
X-16253511Y191431672D01*
X-16253511Y192451672D02*
X-15783511Y192921672D01*
X-12303511Y139701672D02*
X-11493511Y138891672D01*
X-11333511Y139051672D02*
X-8423511Y139051672D01*
X-15053511Y196111672D02*
X-13983511Y195041672D01*
X-12303511Y157161672D02*
X-12303511Y139701672D01*
X-15623511Y169911672D02*
X-15623511Y160481672D01*
X-15623511Y160481672D02*
X-12303511Y157161672D01*
X-11493511Y138891672D02*
X-11333511Y139051672D01*
X-21083511Y196111672D02*
X-15053511Y196111672D01*
X-13983511Y195041672D02*
X-13983511Y171551672D01*
X-8423511Y139051672D02*
X-6193511Y136821672D01*
X-13983511Y171551672D02*
X-15623511Y169911672D01*
X-26771681Y201799842D02*
X-21083511Y196111672D01*
X-26771681Y202678126D02*
X-26771681Y201799842D01*
X3216489Y193811672D02*
X3216489Y195296672D01*
X-11543511Y194691672D02*
X-3263511Y194691672D01*
X-3263511Y194691672D02*
X-1483511Y192911672D01*
X-18893067Y200943712D02*
X-17795551Y200943712D01*
X-17795551Y200943712D02*
X-11543511Y194691672D01*
X-1483511Y192911672D02*
X2316489Y192911672D01*
X2316489Y192911672D02*
X3216489Y193811672D01*
X5506489Y192311672D02*
X3216489Y190021672D01*
X5506489Y198341672D02*
X5506489Y192311672D01*
X3986489Y199861672D02*
X5506489Y198341672D01*
X-18419866Y204632227D02*
X-18419866Y203738027D01*
X3216489Y190021672D02*
X3216489Y176296672D01*
X-14543511Y199861672D02*
X3986489Y199861672D01*
X-18419866Y203738027D02*
X-14543511Y199861672D01*
X12667489Y183560672D02*
X22216489Y174011672D01*
X9892489Y184458787D02*
X11191564Y184458787D01*
X22216489Y174011672D02*
X22216489Y173921672D01*
X11191564Y184458787D02*
X12089679Y183560672D01*
X9203604Y185147672D02*
X9892489Y184458787D01*
X9060489Y185147672D02*
X9203604Y185147672D01*
X8416489Y185791672D02*
X9060489Y185147672D01*
X2936489Y203061672D02*
X7256489Y198741672D01*
X12089679Y183560672D02*
X12667489Y183560672D01*
X1796489Y203061672D02*
X2936489Y203061672D01*
X7256489Y198741672D02*
X7256489Y195151672D01*
X34410371Y131511323D02*
X34410371Y130217228D01*
X24656489Y181751672D02*
X24656489Y141265205D01*
X24656489Y194651672D02*
X24656489Y194491672D01*
X24656489Y141265205D02*
X34410371Y131511323D01*
X17116489Y196051672D02*
X23256489Y196051672D01*
X23256489Y196051672D02*
X24656489Y194651672D01*
X8986489Y204341672D02*
X8986489Y204181672D01*
X8986489Y204181672D02*
X17116489Y196051672D01*
X18761520Y200826641D02*
X21311520Y200826641D01*
X36761489Y195001672D02*
X41216489Y190546672D01*
X27136489Y195001672D02*
X36761489Y195001672D01*
X21311520Y200826641D02*
X27136489Y195001672D01*
X83437500Y142220000D02*
X83437500Y144250000D01*
X61279716Y145278445D02*
X63819716Y145278445D01*
X68899716Y147818445D02*
X68899716Y145278445D01*
X73979716Y147818445D02*
X73979716Y145278445D01*
X63819716Y147818445D02*
X66359716Y147818445D01*
X63819716Y145278445D02*
X68899716Y145278445D01*
X84287500Y141370000D02*
X83437500Y142220000D01*
X63819716Y147818445D02*
X68899716Y147818445D01*
X56199716Y147818445D02*
X56199716Y145278445D01*
X58739716Y147818445D02*
X56199716Y147818445D01*
X76569716Y187688445D02*
X76549716Y187668445D01*
X79059716Y147818445D02*
X82639716Y151398445D01*
X79409716Y187658445D02*
X76629716Y187658445D01*
X76629716Y187658445D02*
X76599716Y187688445D01*
X82639716Y184428445D02*
X79409716Y187658445D01*
X76599716Y187688445D02*
X76569716Y187688445D01*
X82639716Y151398445D02*
X82639716Y184428445D01*
X-12440284Y163438445D02*
X-11214548Y163438445D01*
X-7320321Y167332672D02*
X1649679Y167332672D01*
X12463299Y184462672D02*
X29535489Y184462672D01*
X1649679Y167332672D02*
X6695489Y172378482D01*
X42019716Y185018445D02*
X76469716Y185018445D01*
X29535489Y184462672D02*
X30152489Y183845672D01*
X76469716Y185018445D02*
X76469716Y185048445D01*
X6695489Y172378482D02*
X6695489Y186308482D01*
X-65672500Y152482683D02*
X-65672500Y171260661D01*
X38500489Y183845672D02*
X39673716Y182672445D01*
X-65783511Y190371672D02*
X-65783511Y171371672D01*
X9253299Y187672672D02*
X12463299Y184462672D01*
X6695489Y186308482D02*
X8059679Y187672672D01*
X76469716Y185048445D02*
X76549716Y185128445D01*
X-65783511Y152371672D02*
X-65672500Y152482683D01*
X39673716Y182672445D02*
X42019716Y185018445D01*
X8059679Y187672672D02*
X9253299Y187672672D01*
X-11214548Y163438445D02*
X-7320321Y167332672D01*
X-65672500Y171260661D02*
X-65783511Y171371672D01*
X30152489Y183845672D02*
X38500489Y183845672D01*
X9066489Y187221672D02*
X12276489Y184011672D01*
X72060716Y184567445D02*
X74039716Y182588445D01*
X7146489Y186121672D02*
X8246489Y187221672D01*
X-46783511Y171371672D02*
X-46783511Y152371672D01*
X12276489Y184011672D02*
X29348679Y184011672D01*
X29348679Y184011672D02*
X29965679Y183394672D01*
X29965679Y183394672D02*
X38313679Y183394672D01*
X39486906Y182221445D02*
X39860526Y182221445D01*
X42206526Y184567445D02*
X72060716Y184567445D01*
X7146489Y172191672D02*
X7146489Y186121672D01*
X-46783511Y190371672D02*
X-46783511Y171371672D01*
X38313679Y183394672D02*
X39486906Y182221445D01*
X-42370284Y149758445D02*
X-40190284Y147578445D01*
X74039716Y182588445D02*
X76549716Y182588445D01*
X-40190284Y147578445D02*
X-28130284Y147578445D01*
X-28130284Y147578445D02*
X-27090284Y146538445D01*
X39860526Y182221445D02*
X42206526Y184567445D01*
X1836489Y166881672D02*
X7146489Y172191672D01*
X-11243511Y162771672D02*
X-7133511Y166881672D01*
X-7133511Y166881672D02*
X1836489Y166881672D01*
X-46783511Y152371672D02*
X-44170284Y149758445D01*
X8246489Y187221672D02*
X9066489Y187221672D01*
X-44170284Y149758445D02*
X-42370284Y149758445D01*
X-27783511Y157121672D02*
X-27783511Y148611672D01*
X9929716Y144138445D02*
X8899716Y144138445D01*
X-26443511Y178581672D02*
X-27783511Y177241672D01*
X-26443511Y180411672D02*
X-26443511Y178581672D01*
X-27783511Y195121672D02*
X-27783511Y192961672D01*
X8899716Y144138445D02*
X8893158Y144131887D01*
X65269716Y159138445D02*
X70179716Y164048445D01*
X-27783511Y148611672D02*
X-18193511Y139021672D01*
X32063262Y158758445D02*
X31196489Y157891672D01*
X-27103511Y181071672D02*
X-26443511Y180411672D01*
X5699716Y144138445D02*
X2699716Y141138445D01*
X-27783511Y176121672D02*
X-27783511Y157121672D01*
X41909716Y158758445D02*
X32063262Y158758445D01*
X-27103511Y181631672D02*
X-27103511Y181071672D01*
X8893158Y144131887D02*
X8886600Y144138445D01*
X70179716Y166058445D02*
X70169716Y166048445D01*
X-27783511Y177241672D02*
X-27783511Y176121672D01*
X41949716Y158718445D02*
X41909716Y158758445D01*
X70179716Y164048445D02*
X70179716Y166058445D01*
X8886600Y144138445D02*
X5699716Y144138445D01*
X-8783511Y159496672D02*
X-8783511Y159431672D01*
X7476489Y154051672D02*
X-1735877Y154051672D01*
X-8783511Y159431672D02*
X-8783511Y149278211D01*
X-8783511Y178496672D02*
X-8783511Y178391672D01*
X-6782511Y157495672D02*
X-8783511Y159496672D01*
X-1735877Y154051672D02*
X-5179877Y157495672D01*
X32156489Y160361672D02*
X31106489Y159311672D01*
X-8783511Y197496672D02*
X-8783511Y195551672D01*
X-8783511Y192411672D02*
X-8783511Y178496672D01*
X-8783511Y149278211D02*
X2010577Y138484123D01*
X41686489Y160361672D02*
X32156489Y160361672D01*
X-5179877Y157495672D02*
X-6782511Y157495672D01*
X10216489Y179981672D02*
X10216489Y176121672D01*
X21719716Y176868445D02*
X22969716Y176868445D01*
X29139716Y176338445D02*
X41569716Y176338445D01*
X23388663Y135448094D02*
X10216489Y148620268D01*
X10216489Y176071672D02*
X10216489Y157121672D01*
X19609716Y178338445D02*
X20249716Y178338445D01*
X20249716Y178338445D02*
X21719716Y176868445D01*
X19479716Y178468445D02*
X19609716Y178338445D01*
X10236489Y180001672D02*
X10216489Y179981672D01*
X10216489Y148620268D02*
X10216489Y157121672D01*
X41569716Y176338445D02*
X42639716Y175268445D01*
X28744716Y176733445D02*
X29139716Y176338445D01*
X26914716Y176733445D02*
X28744716Y176733445D01*
X10216489Y176121672D02*
X10216489Y176071672D01*
X37997500Y123293529D02*
X39502245Y121788784D01*
X42129716Y167348445D02*
X38029716Y167348445D01*
X29216489Y140001672D02*
X37997500Y131220661D01*
X37997500Y131220661D02*
X37997500Y123293529D01*
X29216489Y173746672D02*
X29216489Y140001672D01*
X38029716Y167348445D02*
X34149716Y171228445D01*
X31734716Y171228445D02*
X29216489Y173746672D01*
X34149716Y171228445D02*
X31734716Y171228445D01*
X85427500Y146681376D02*
X85427500Y190868471D01*
X85403716Y144399298D02*
X85403716Y146657592D01*
X60019716Y194038445D02*
X58709716Y192728445D01*
X86947500Y134220000D02*
X85427500Y135740000D01*
X58709716Y192728445D02*
X58709716Y192748445D01*
X85427500Y190868471D02*
X82257526Y194038445D01*
X85403716Y146657592D02*
X85427500Y146681376D01*
X85427500Y135740000D02*
X85427500Y144375514D01*
X82257526Y194038445D02*
X60019716Y194038445D01*
X85427500Y144375514D02*
X85403716Y144399298D01*
X81319716Y174578445D02*
X80899716Y174998445D01*
X81319716Y151398445D02*
X81319716Y174578445D01*
X76519716Y147818445D02*
X79549716Y150848445D01*
X78259716Y180068445D02*
X76499716Y180068445D01*
X79549716Y150848445D02*
X79549716Y178778445D01*
X79549716Y178778445D02*
X78259716Y180068445D01*
X74269716Y150648445D02*
X74269716Y171148445D01*
X71439716Y147818445D02*
X74269716Y150648445D01*
X76529716Y172398445D02*
X76549716Y172418445D01*
X76549716Y172418445D02*
X76549716Y172428445D01*
X75519716Y172398445D02*
X76529716Y172398445D01*
X74269716Y171148445D02*
X75519716Y172398445D01*
X43679716Y139170000D02*
X47407500Y135442216D01*
X47407500Y135442216D02*
X47407500Y131081089D01*
X32999716Y199068445D02*
X28526489Y203541672D01*
X43679716Y178477672D02*
X43679716Y139170000D01*
X43680489Y178478445D02*
X43679716Y178477672D01*
X151577500Y178720000D02*
X151577500Y183060000D01*
X152822500Y175916000D02*
X152822500Y177475000D01*
X161086553Y141569028D02*
X161088472Y141569028D01*
X153307500Y161620000D02*
X153307500Y171700000D01*
X153307500Y171700000D02*
X153812500Y172205000D01*
X161088472Y141569028D02*
X161097500Y141560000D01*
X154967500Y159960000D02*
X153307500Y161620000D01*
X152828500Y175910000D02*
X152822500Y175916000D01*
X153812500Y172205000D02*
X153812500Y172245000D01*
X152822500Y177475000D02*
X151577500Y178720000D01*
X151577500Y183060000D02*
X151557500Y183080000D01*
X143017500Y192870000D02*
X143017500Y192880000D01*
X142987500Y192840000D02*
X143017500Y192870000D01*
X127057500Y192840000D02*
X142987500Y192840000D01*
X121187500Y198710000D02*
X127057500Y192840000D01*
X153657500Y159660000D02*
X152507500Y160810000D01*
X152507500Y172210000D02*
X152737500Y172440000D01*
X152507500Y160810000D02*
X152507500Y172210000D01*
X160836553Y141136015D02*
X160834190Y141136015D01*
X127667500Y198750000D02*
X131707500Y194710000D01*
X160647500Y187720000D02*
X160887500Y187720000D01*
X160887500Y187720000D02*
X160857500Y187750000D01*
X160834190Y141136015D02*
X160833531Y141135356D01*
X152737500Y172440000D02*
X152837500Y172440000D01*
X153657500Y194710000D02*
X160647500Y187720000D01*
X131707500Y194710000D02*
X153657500Y194710000D01*
X160857500Y187750000D02*
X160857500Y187800000D01*
X162336553Y143734091D02*
X162351591Y143734091D01*
X162351591Y143734091D02*
X162359912Y143742412D01*
X162359912Y143742412D02*
X162341441Y143742412D01*
X167010558Y174893057D02*
X166974443Y174893057D01*
X166974443Y174893057D02*
X166767500Y175100000D01*
X163586553Y145899155D02*
X163586553Y145902538D01*
X166767500Y175100000D02*
X160857500Y175100000D01*
X163586553Y145902538D02*
X163591571Y145907556D01*
X161336553Y142002041D02*
X161336553Y142000947D01*
X138747500Y174660000D02*
X138747500Y181800000D01*
X137267500Y173180000D02*
X138747500Y174660000D01*
X161336553Y142000947D02*
X161337500Y142000000D01*
X160867500Y167480000D02*
X160857500Y167480000D01*
X164367500Y163980000D02*
X160867500Y167480000D01*
X163086552Y145033129D02*
X163089320Y145033129D01*
X163089320Y145033129D02*
X163095627Y145039436D01*
X167012500Y163980000D02*
X164367500Y163980000D01*
X167442500Y163550000D02*
X167012500Y163980000D01*
X162586553Y144167104D02*
X162601254Y144167104D01*
X165950500Y170020000D02*
X160857500Y170020000D01*
X166540500Y169430000D02*
X165950500Y170020000D01*
X162601254Y144167104D02*
X162602811Y144168661D01*
X163353208Y145466142D02*
X163354432Y145467366D01*
X160907500Y172560000D02*
X160857500Y172560000D01*
X167442500Y171985000D02*
X166757500Y172670000D01*
X160937500Y172530000D02*
X160907500Y172560000D01*
X163336553Y145466142D02*
X163353208Y145466142D01*
X167442500Y171240000D02*
X167442500Y171985000D01*
X166757500Y172670000D02*
X161077500Y172670000D01*
X161077500Y172670000D02*
X160937500Y172530000D01*
X161853101Y142868066D02*
X161854365Y142869330D01*
X161836553Y142868066D02*
X161853101Y142868066D01*
X167597500Y179870000D02*
X165106652Y177379152D01*
X162086553Y143309662D02*
X162088184Y143311293D01*
X165106652Y177379152D02*
X165106652Y176159152D01*
X167597500Y182880000D02*
X167597500Y179870000D01*
X162086553Y143301079D02*
X162086553Y143309662D01*
X160857500Y190340000D02*
X160787500Y190270000D01*
X160787500Y190270000D02*
X159697500Y190270000D01*
X141687500Y199450000D02*
X138667500Y196430000D01*
X159697500Y190270000D02*
X150517500Y199450000D01*
X150517500Y199450000D02*
X141687500Y199450000D01*
X266777500Y171371672D02*
X266747500Y171371672D01*
X160857500Y185230000D02*
X160857500Y185260000D01*
X185206310Y179239000D02*
X182115310Y182330000D01*
X246057500Y175070000D02*
X240808500Y180319000D01*
X266747500Y171371672D02*
X264815828Y171371672D01*
X182115310Y182330000D02*
X173657500Y182330000D01*
X240808500Y180319000D02*
X222090690Y180319000D01*
X201064310Y179239000D02*
X185206310Y179239000D01*
X220270690Y182139000D02*
X203964310Y182139000D01*
X173657500Y182330000D02*
X170777500Y185210000D01*
X203964310Y182139000D02*
X201064310Y179239000D01*
X222090690Y180319000D02*
X220270690Y182139000D01*
X160837500Y185210000D02*
X160857500Y185230000D01*
X264815828Y171371672D02*
X261117500Y175070000D01*
X261117500Y175070000D02*
X246057500Y175070000D01*
X170777500Y185210000D02*
X160837500Y185210000D01*
X241427500Y180770000D02*
X247777500Y187120000D01*
X222277500Y180770000D02*
X241427500Y180770000D01*
X220457500Y182590000D02*
X222277500Y180770000D01*
X187667500Y179690000D02*
X200877500Y179690000D01*
X186347500Y181010000D02*
X187667500Y179690000D01*
X173701880Y181010000D02*
X171032880Y183679000D01*
X178397500Y181010000D02*
X173701880Y181010000D01*
X200877500Y179690000D02*
X203777500Y182590000D01*
X171032880Y183679000D02*
X163277500Y183679000D01*
X163277500Y183679000D02*
X161796500Y183679000D01*
X247777500Y187120000D02*
X247777500Y190371672D01*
X203777500Y182590000D02*
X220457500Y182590000D01*
X161796500Y183679000D02*
X160857500Y182740000D01*
X154477500Y166230000D02*
X154477500Y166180000D01*
X210376500Y153551000D02*
X204588500Y159339000D01*
X154427500Y163870000D02*
X154427500Y166280000D01*
X219187500Y139021672D02*
X210376500Y147832672D01*
X154427500Y166280000D02*
X154477500Y166230000D01*
X204588500Y159339000D02*
X158958500Y159339000D01*
X158958500Y159339000D02*
X154427500Y163870000D01*
X210376500Y147832672D02*
X210376500Y153551000D01*
X163407500Y159790000D02*
X157017500Y166180000D01*
X209484172Y159790000D02*
X163407500Y159790000D01*
X209777500Y159496672D02*
X209484172Y159790000D01*
X145635310Y185920000D02*
X139510589Y185920000D01*
X187685828Y176121672D02*
X181937500Y181870000D01*
X173727500Y181870000D02*
X173718500Y181879000D01*
X190777500Y195121672D02*
X190595828Y194940000D01*
X146926405Y184628905D02*
X145635310Y185920000D01*
X173718500Y181879000D02*
X173470690Y181879000D01*
X173470690Y181879000D02*
X170720785Y184628905D01*
X139510589Y185920000D02*
X139509589Y185919000D01*
X170720785Y184628905D02*
X146926405Y184628905D01*
X181937500Y181870000D02*
X173727500Y181870000D01*
X190777500Y176121672D02*
X187685828Y176121672D01*
X171750828Y173720000D02*
X153087500Y173720000D01*
X153087500Y173720000D02*
X150837500Y171470000D01*
X171777500Y173746672D02*
X171750828Y173720000D01*
X150837500Y171470000D02*
X150157500Y171470000D01*
X162837383Y144600117D02*
X162837500Y144600000D01*
X162836553Y144600117D02*
X162837383Y144600117D01*
X162836553Y144600117D02*
X162836553Y144603864D01*
X162836553Y144603864D02*
X162840982Y144608293D01*
X142987500Y182484000D02*
X143017500Y182454000D01*
X142987500Y182628000D02*
X142987500Y182484000D01*
X139198500Y173979798D02*
X139198500Y180840000D01*
X139198500Y180840000D02*
X140986500Y182628000D01*
X161604295Y142435053D02*
X161605121Y142435879D01*
X161586553Y142435053D02*
X161604295Y142435053D01*
X137422501Y172203799D02*
X139198500Y173979798D01*
X140986500Y182628000D02*
X142987500Y182628000D01*
M02*
