G04 #@! TF.GenerationSoftware,KiCad,Pcbnew,9.0.0*
G04 #@! TF.CreationDate,2025-05-26T00:17:28-04:00*
G04 #@! TF.ProjectId,sandevistan42_longboioled1,73616e64-6576-4697-9374-616e34325f6c,0.0.1*
G04 #@! TF.SameCoordinates,Original*
G04 #@! TF.FileFunction,Soldermask,Bot*
G04 #@! TF.FilePolarity,Negative*
%FSLAX46Y46*%
G04 Gerber Fmt 4.6, Leading zero omitted, Abs format (unit mm)*
G04 Created by KiCad (PCBNEW 9.0.0) date 2025-05-26 00:17:28*
%MOMM*%
%LPD*%
G01*
G04 APERTURE LIST*
G04 Aperture macros list*
%AMRoundRect*
0 Rectangle with rounded corners*
0 $1 Rounding radius*
0 $2 $3 $4 $5 $6 $7 $8 $9 X,Y pos of 4 corners*
0 Add a 4 corners polygon primitive as box body*
4,1,4,$2,$3,$4,$5,$6,$7,$8,$9,$2,$3,0*
0 Add four circle primitives for the rounded corners*
1,1,$1+$1,$2,$3*
1,1,$1+$1,$4,$5*
1,1,$1+$1,$6,$7*
1,1,$1+$1,$8,$9*
0 Add four rect primitives between the rounded corners*
20,1,$1+$1,$2,$3,$4,$5,0*
20,1,$1+$1,$4,$5,$6,$7,0*
20,1,$1+$1,$6,$7,$8,$9,0*
20,1,$1+$1,$8,$9,$2,$3,0*%
G04 Aperture macros list end*
%ADD10C,1.800000*%
%ADD11C,2.400000*%
%ADD12RoundRect,0.330775X-0.690454X0.000000X0.000000X-0.690454X0.690454X0.000000X0.000000X0.690454X0*%
%ADD13C,1.638000*%
%ADD14C,2.000000*%
%ADD15C,3.450000*%
%ADD16C,5.450000*%
%ADD17RoundRect,0.290000X-1.185000X-1.160000X1.185000X-1.160000X1.185000X1.160000X-1.185000X1.160000X0*%
%ADD18RoundRect,0.290000X-1.368429X-0.936604X0.965565X-1.348150X1.368429X0.936604X-0.965565X1.348150X0*%
%ADD19RoundRect,0.290000X-1.510279X-0.684750X0.716792X-1.495337X1.510279X0.684750X-0.716792X1.495337X0*%
%ADD20RoundRect,0.290000X0.412089X-1.606240X1.597089X0.446240X-0.412089X1.606240X-1.597089X-0.446240X0*%
%ADD21C,2.600000*%
%ADD22C,2.200000*%
%ADD23RoundRect,0.290000X-0.965565X-1.348150X1.368429X-0.936604X0.965565X1.348150X-1.368429X0.936604X0*%
%ADD24RoundRect,0.330775X0.690454X0.000000X0.000000X0.690454X-0.690454X0.000000X0.000000X-0.690454X0*%
%ADD25C,5.200000*%
%ADD26RoundRect,0.330000X0.770000X0.770000X-0.770000X0.770000X-0.770000X-0.770000X0.770000X-0.770000X0*%
%ADD27RoundRect,0.330000X-1.051840X-0.281840X0.281840X-1.051840X1.051840X0.281840X-0.281840X1.051840X0*%
%ADD28RoundRect,0.290000X-1.597089X0.446240X-0.412089X-1.606240X1.597089X-0.446240X0.412089X1.606240X0*%
%ADD29RoundRect,0.290000X-0.716792X-1.495337X1.510279X-0.684750X0.716792X1.495337X-1.510279X0.684750X0*%
%ADD30RoundRect,0.200000X0.471266X-0.433744X0.611266X-0.191256X-0.471266X0.433744X-0.611266X0.191256X0*%
%ADD31RoundRect,0.200000X0.416025X-1.279423X1.316025X0.279423X-0.416025X1.279423X-1.316025X-0.279423X0*%
G04 APERTURE END LIST*
D10*
X79267500Y137660000D03*
D11*
X68767500Y134950000D03*
X75267500Y134950000D03*
D12*
X-69563511Y204051672D03*
D13*
X-62391681Y196908126D03*
D12*
X-65033511Y203801672D03*
D13*
X-57861681Y196658126D03*
D12*
X-65252500Y208250000D03*
D13*
X-58080670Y201106454D03*
D12*
X-58083886Y206425586D03*
D13*
X-50912056Y199282040D03*
D12*
X-53732500Y206280000D03*
D13*
X-46560670Y199136454D03*
D12*
X-53819299Y210498515D03*
D13*
X-46647469Y203354969D03*
D12*
X-43954330Y206653546D03*
D13*
X-36782500Y199510000D03*
D12*
X-43234330Y210263546D03*
D13*
X-36062500Y203120000D03*
D12*
X-38904330Y210293546D03*
D13*
X-31732500Y203150000D03*
D12*
X-33884330Y209703546D03*
D13*
X-26712500Y202560000D03*
D12*
X-26134330Y208033546D03*
D13*
X-18962500Y200890000D03*
D12*
X-25794330Y211973546D03*
D13*
X-18622500Y204830000D03*
D12*
X-21582500Y211910000D03*
D13*
X-14410670Y204766454D03*
D12*
X-16974330Y211503546D03*
D13*
X-9802500Y204360000D03*
D12*
X-10144330Y210523546D03*
D13*
X-2972500Y203380000D03*
D12*
X-5684330Y210293546D03*
D13*
X1487500Y203150000D03*
D12*
X-4025341Y213095218D03*
D13*
X3146489Y205951672D03*
D12*
X1805670Y211213546D03*
D13*
X8977500Y204070000D03*
D12*
X11445670Y212023546D03*
D13*
X18617500Y204880000D03*
D12*
X15825670Y211973546D03*
D13*
X22997500Y204830000D03*
D12*
X21354659Y210685218D03*
D13*
X28526489Y203541672D03*
D14*
X-29283511Y183971672D03*
D15*
X-24283511Y195021672D03*
D16*
X-24283511Y189121672D03*
D15*
X-19283511Y192921672D03*
D17*
X-27783511Y195121672D03*
X-15783511Y192921672D03*
D14*
X-29283511Y164971672D03*
D15*
X-24283511Y176021672D03*
D16*
X-24283511Y170121672D03*
D15*
X-19283511Y173921672D03*
D17*
X-27783511Y176121672D03*
X-15783511Y173921672D03*
D14*
X-29283511Y145971672D03*
D15*
X-24283511Y157021672D03*
D16*
X-24283511Y151121672D03*
D15*
X-19283511Y154921672D03*
D17*
X-27783511Y157121672D03*
X-15783511Y154921672D03*
D14*
X-19693511Y127871672D03*
D15*
X-14693511Y138921672D03*
D16*
X-14693511Y133021672D03*
D15*
X-9693511Y136821672D03*
D17*
X-18193511Y139021672D03*
X-6193511Y136821672D03*
D14*
X-10283511Y186346672D03*
D15*
X-5283511Y197396672D03*
D16*
X-5283511Y191496672D03*
D15*
X-283511Y195296672D03*
D17*
X-8783511Y197496672D03*
X3216489Y195296672D03*
D14*
X-10283511Y167346672D03*
D15*
X-5283511Y178396672D03*
D16*
X-5283511Y172496672D03*
D15*
X-283511Y176296672D03*
D17*
X-8783511Y178496672D03*
X3216489Y176296672D03*
D14*
X-10283511Y148346672D03*
D15*
X-5283511Y159396672D03*
D16*
X-5283511Y153496672D03*
D15*
X-283511Y157296672D03*
D17*
X-8783511Y159496672D03*
X3216489Y157296672D03*
D14*
X24111Y126979866D03*
D15*
X6866962Y136993751D03*
D16*
X5842438Y131183385D03*
D15*
X11426340Y134057414D03*
D18*
X3437500Y137700000D03*
X14873167Y133449645D03*
D14*
X8716489Y183971672D03*
D15*
X13716489Y195021672D03*
D16*
X13716489Y189121672D03*
D15*
X18716489Y192921672D03*
D17*
X10216489Y195121672D03*
X22216489Y192921672D03*
D14*
X8716489Y164971672D03*
D15*
X13716489Y176021672D03*
D16*
X13716489Y170121672D03*
D15*
X18716489Y173921672D03*
D17*
X10216489Y176121672D03*
X22216489Y173921672D03*
D14*
X8716489Y145971672D03*
D15*
X13716489Y157021672D03*
D16*
X13716489Y151121672D03*
D15*
X18716489Y154921672D03*
D17*
X10216489Y157121672D03*
X22216489Y154921672D03*
D14*
X19234436Y122725457D03*
D15*
X27712222Y131398959D03*
D16*
X25694303Y125854773D03*
D15*
X31692443Y127715504D03*
D19*
X24457500Y132689999D03*
X34981367Y126518434D03*
D14*
X27716488Y162596672D03*
D16*
X32716489Y167746672D03*
D15*
X32716490Y173646672D03*
X37716488Y171546672D03*
D17*
X29216489Y173746672D03*
X41216489Y171546672D03*
D14*
X27716489Y143596671D03*
D15*
X32716488Y154646671D03*
D16*
X32716489Y148746672D03*
D15*
X37716489Y152546672D03*
D17*
X29216489Y154746673D03*
X41216488Y152546671D03*
D14*
X48408428Y114914746D03*
D15*
X41338847Y124769873D03*
D16*
X46448397Y121819873D03*
D15*
X45657500Y128050000D03*
D20*
X39502245Y121788784D03*
X47407500Y131081089D03*
D14*
X-67283511Y179221672D03*
D15*
X-62283511Y190271672D03*
D16*
X-62283511Y184371672D03*
D15*
X-57283511Y188171672D03*
D17*
X-65783511Y190371672D03*
X-53783511Y188171672D03*
D21*
X22736489Y179601672D03*
X37886489Y136071672D03*
X-52763511Y155661672D03*
D22*
X66359716Y190208445D03*
X68899716Y190208445D03*
X62549716Y169888445D03*
D21*
X-52783511Y174871672D03*
D10*
X128857500Y195230000D03*
D14*
X246277500Y179221672D03*
D15*
X251277500Y190271672D03*
D16*
X251277500Y184371672D03*
D15*
X256277500Y188171672D03*
D17*
X247777500Y190371672D03*
X259777500Y188171672D03*
D14*
X198121800Y125243384D03*
D15*
X201127027Y136993751D03*
D16*
X202151551Y131183385D03*
D15*
X206415727Y135793895D03*
D23*
X197662835Y136484463D03*
X209862554Y136401664D03*
D14*
X208277500Y148346672D03*
D15*
X213277500Y159396672D03*
D16*
X213277500Y153496672D03*
D15*
X218277500Y157296672D03*
D17*
X209777500Y159496672D03*
X221777500Y157296672D03*
D14*
X189277500Y183971672D03*
D15*
X194277500Y195021672D03*
D16*
X194277500Y189121672D03*
D15*
X199277500Y192921672D03*
D17*
X190777500Y195121672D03*
X202777500Y192921672D03*
D14*
X189277500Y164971672D03*
D15*
X194277500Y176021672D03*
D16*
X194277500Y170121672D03*
D15*
X199277500Y173921672D03*
D17*
X190777500Y176121672D03*
X202777500Y173921672D03*
D24*
X248686320Y204080000D03*
D13*
X241514490Y211223546D03*
D21*
X-68733384Y196168445D03*
D24*
X209311200Y204080000D03*
D13*
X202139370Y211223546D03*
D25*
X88129716Y145528445D03*
X88129716Y196528445D03*
X47129716Y145528445D03*
X47129716Y196528445D03*
D26*
X79059716Y145278445D03*
D22*
X79059716Y147818445D03*
X76519716Y145278445D03*
X76519716Y147818445D03*
X73979716Y145278445D03*
X73979716Y147818445D03*
X71439716Y145278445D03*
X71439716Y147818445D03*
X68899716Y145278445D03*
X68899716Y147818445D03*
X66359716Y145278445D03*
X66359716Y147818445D03*
X63819716Y145278445D03*
X63819716Y147818445D03*
X61279716Y145278445D03*
X61279716Y147818445D03*
X58739716Y145278445D03*
X58739716Y147818445D03*
X56199716Y145278445D03*
X56199716Y147818445D03*
D14*
X170277500Y162596672D03*
D15*
X175277500Y173646672D03*
D16*
X175277500Y167746672D03*
D15*
X180277500Y171546672D03*
D17*
X171777500Y173746672D03*
X183777500Y171546672D03*
D12*
X11347500Y208080000D03*
D13*
X18519330Y200936454D03*
D24*
X261811360Y204080000D03*
D13*
X254639530Y211223546D03*
D14*
X265277500Y141221672D03*
D15*
X270277500Y152271672D03*
D16*
X270277500Y146371672D03*
D15*
X275277500Y150171672D03*
D17*
X266777500Y152371672D03*
X278777500Y150171672D03*
D21*
X181134273Y211908445D03*
D24*
X251967580Y204080000D03*
D13*
X244795750Y211223546D03*
D24*
X228998760Y204080000D03*
D13*
X221826930Y211223546D03*
D11*
X138667500Y196430000D03*
X132167500Y196430000D03*
D14*
X189277500Y145971672D03*
D15*
X194277500Y157021672D03*
D16*
X194277500Y151121672D03*
D15*
X199277500Y154921672D03*
D17*
X190777500Y157121672D03*
X202777500Y154921672D03*
D14*
X-48283511Y160221672D03*
D15*
X-43283511Y171271672D03*
D16*
X-43283511Y165371672D03*
D15*
X-38283511Y169171672D03*
D17*
X-46783511Y171371672D03*
X-34783511Y169171672D03*
D14*
X-67283511Y141221672D03*
D15*
X-62283511Y152271672D03*
D16*
X-62283511Y146371672D03*
D15*
X-57283511Y150171672D03*
D17*
X-65783511Y152371672D03*
X-53783511Y150171672D03*
D14*
X227277500Y183971672D03*
D15*
X232277500Y195021672D03*
D16*
X232277500Y189121672D03*
D15*
X237277500Y192921672D03*
D17*
X228777500Y195121672D03*
X240777500Y192921672D03*
D14*
X227277500Y145971672D03*
D15*
X232277500Y157021672D03*
D16*
X232277500Y151121672D03*
D15*
X237277500Y154921672D03*
D17*
X228777500Y157121672D03*
X240777500Y154921672D03*
D14*
X-48283511Y141221672D03*
D15*
X-43283511Y152271672D03*
D16*
X-43283511Y146371672D03*
D15*
X-38283511Y150171672D03*
D17*
X-46783511Y152371672D03*
X-34783511Y150171672D03*
D27*
X123827500Y219090000D03*
D22*
X128226909Y216550000D03*
X132626318Y214010000D03*
D24*
X238842540Y204080000D03*
D13*
X231670710Y211223546D03*
D24*
X232280020Y204080000D03*
D13*
X225108190Y211223546D03*
D21*
X276727373Y211908445D03*
D24*
X225717500Y204080000D03*
D13*
X218545670Y211223546D03*
D14*
X170277500Y181596672D03*
D15*
X175277500Y192646672D03*
D16*
X175277500Y186746672D03*
D15*
X180277500Y190546672D03*
D17*
X171777500Y192746672D03*
X183777500Y190546672D03*
D21*
X-28693511Y136071672D03*
D27*
X120398091Y213080000D03*
D22*
X124797500Y210540000D03*
X129196909Y208000000D03*
D24*
X222436240Y204080000D03*
D13*
X215264410Y211223546D03*
D24*
X219154980Y204080000D03*
D13*
X211983150Y211223546D03*
D14*
X265277500Y179221672D03*
D15*
X270277500Y190271672D03*
D16*
X270277500Y184371672D03*
D15*
X275277500Y188171672D03*
D17*
X266777500Y190371672D03*
X278777500Y188171672D03*
D24*
X242123800Y204080000D03*
D13*
X234951970Y211223546D03*
D14*
X27716489Y181596672D03*
D15*
X32716489Y192646672D03*
D16*
X32716489Y186746672D03*
D15*
X37716489Y190546672D03*
D17*
X29216489Y192746672D03*
X41216489Y190546672D03*
D24*
X255248840Y204080000D03*
D13*
X248077010Y211223546D03*
D21*
X236687500Y136071672D03*
D14*
X208277500Y186346672D03*
D15*
X213277500Y197396672D03*
D16*
X213277500Y191496672D03*
D15*
X218277500Y195296672D03*
D17*
X209777500Y197496672D03*
X221777500Y195296672D03*
D21*
X26859716Y211908445D03*
D14*
X246277500Y141221672D03*
D15*
X251277500Y152271672D03*
D16*
X251277500Y146371672D03*
D15*
X256277500Y150171672D03*
D17*
X247777500Y152371672D03*
X259777500Y150171672D03*
D21*
X204197500Y163011672D03*
D24*
X258530100Y204080000D03*
D13*
X251358270Y211223546D03*
D21*
X276727373Y196168445D03*
D24*
X206029940Y204080000D03*
D13*
X198858110Y211223546D03*
D14*
X227277500Y164971672D03*
D15*
X232277500Y176021672D03*
D16*
X232277500Y170121672D03*
D15*
X237277500Y173921672D03*
D17*
X228777500Y176121672D03*
X240777500Y173921672D03*
D24*
X265092620Y204080000D03*
D13*
X257920790Y211223546D03*
D21*
X170107500Y136071672D03*
D14*
X154585561Y123575000D03*
D15*
X166655142Y124769873D03*
D16*
X161545592Y121819873D03*
D15*
X167336489Y119389746D03*
D28*
X164991744Y127850962D03*
X169086489Y116358657D03*
D14*
X265277500Y160221672D03*
D15*
X270277500Y171271672D03*
D16*
X270277500Y165371672D03*
D15*
X275277500Y169171672D03*
D17*
X266777500Y171371672D03*
X278777500Y169171672D03*
D14*
X208277500Y167346672D03*
D15*
X213277500Y178396672D03*
D16*
X213277500Y172496672D03*
D15*
X218277500Y176296672D03*
D17*
X209777500Y178496672D03*
X221777500Y176296672D03*
D24*
X196186160Y204080000D03*
D13*
X189014330Y211223546D03*
D14*
X-67283511Y160221672D03*
D15*
X-62283511Y171271672D03*
D16*
X-62283511Y165371672D03*
D15*
X-57283511Y169171672D03*
D17*
X-65783511Y171371672D03*
X-53783511Y169171672D03*
D14*
X246277500Y160221672D03*
D15*
X251277500Y171271672D03*
D16*
X251277500Y165371672D03*
D15*
X256277500Y169171672D03*
D17*
X247777500Y171371672D03*
X259777500Y169171672D03*
D24*
X215873720Y204080000D03*
D13*
X208701890Y211223546D03*
D24*
X199467420Y204080000D03*
D13*
X192295590Y211223546D03*
D14*
X179362627Y119305255D03*
D15*
X180281767Y131398959D03*
D16*
X182299686Y125854773D03*
D15*
X185698473Y131135706D03*
D29*
X176958641Y130295858D03*
X188987397Y132332776D03*
D21*
X3796489Y163011672D03*
D14*
X217687500Y127871672D03*
D15*
X222687500Y138921672D03*
D16*
X222687500Y133021672D03*
D15*
X227687500Y136821672D03*
D17*
X219187500Y139021672D03*
X231187500Y136821672D03*
D24*
X245405060Y204080000D03*
D13*
X238233230Y211223546D03*
D21*
X-68733384Y211908445D03*
D24*
X202748680Y204080000D03*
D13*
X195576850Y211223546D03*
D22*
X150667500Y190340000D03*
X153207500Y190340000D03*
X146857500Y170020000D03*
D14*
X-48283511Y179221672D03*
D15*
X-43283511Y190271672D03*
D16*
X-43283511Y184371672D03*
D15*
X-38283511Y188171672D03*
D17*
X-46783511Y190371672D03*
X-34783511Y188171672D03*
D24*
X235561280Y204080000D03*
D13*
X228389450Y211223546D03*
D24*
X212592460Y204080000D03*
D13*
X205420630Y211223546D03*
D14*
X170277500Y143596672D03*
D15*
X175277500Y154646672D03*
D16*
X175277500Y148746672D03*
D15*
X180277501Y152546672D03*
D17*
X171777500Y154746672D03*
X183777500Y152546672D03*
D30*
X160836553Y141136015D03*
X161086553Y141569028D03*
X161336553Y142002041D03*
X161586553Y142435053D03*
X161836553Y142868066D03*
X162086553Y143301079D03*
X162336553Y143734091D03*
X162586553Y144167104D03*
X162836553Y144600117D03*
X163086553Y145033129D03*
X163336553Y145466142D03*
X163586553Y145899155D03*
D31*
X162127500Y148820001D03*
X157577500Y140939169D03*
M02*
