M48
; DRILL file {KiCad 9.0.0} date 2025-05-26T00:17:25-0400
; FORMAT={-:-/ absolute / metric / decimal}
; #@! TF.CreationDate,2025-05-26T00:17:25-04:00
; #@! TF.GenerationSoftware,Kicad,Pcbnew,9.0.0
; #@! TF.FileFunction,NonPlated,1,2,NPTH
FMAT,2
METRIC
; #@! TA.AperFunction,NonPlated,NPTH,ComponentDrill
T1C1.400
; #@! TA.AperFunction,NonPlated,NPTH,ComponentDrill
T2C1.600
; #@! TA.AperFunction,NonPlated,NPTH,ComponentDrill
T3C2.200
; #@! TA.AperFunction,NonPlated,NPTH,ComponentDrill
T4C3.050
; #@! TA.AperFunction,NonPlated,NPTH,ComponentDrill
T5C5.050
%
G90
G05
T1
X79.267Y137.66
X128.857Y195.23
T2
X-67.284Y179.222
X-67.284Y160.222
X-67.284Y141.222
X-48.284Y179.222
X-48.284Y160.222
X-48.284Y141.222
X-29.284Y183.972
X-29.284Y164.972
X-29.284Y145.972
X-19.694Y127.872
X-10.284Y186.347
X-10.284Y167.347
X-10.284Y148.347
X0.024Y126.98
X8.716Y183.972
X8.716Y164.972
X8.716Y145.972
X19.234Y122.725
X27.716Y162.597
X27.716Y181.597
X27.716Y143.597
X48.408Y114.915
X154.586Y123.575
X170.278Y181.597
X170.278Y162.597
X170.278Y143.597
X179.363Y119.305
X189.278Y183.972
X189.278Y164.972
X189.278Y145.972
X198.122Y125.243
X208.278Y186.347
X208.278Y167.347
X208.278Y148.347
X217.688Y127.872
X227.278Y183.972
X227.278Y164.972
X227.278Y145.972
X246.277Y179.222
X246.277Y160.222
X246.277Y141.222
X265.277Y179.222
X265.277Y160.222
X265.277Y141.222
T3
X-68.733Y211.908
X-68.733Y196.168
X-52.784Y174.872
X-52.764Y155.662
X-28.694Y136.072
X3.796Y163.012
X22.736Y179.602
X26.86Y211.908
X37.886Y136.072
X170.107Y136.072
X181.134Y211.908
X204.197Y163.012
X236.688Y136.072
X276.727Y211.908
X276.727Y196.168
T4
X-62.284Y190.272
X-62.284Y171.272
X-62.284Y152.272
X-57.284Y188.172
X-57.284Y169.172
X-57.284Y150.172
X-43.284Y190.272
X-43.284Y171.272
X-43.284Y152.272
X-38.284Y188.172
X-38.284Y169.172
X-38.284Y150.172
X-24.284Y195.022
X-24.284Y176.022
X-24.284Y157.022
X-19.284Y192.922
X-19.284Y173.922
X-19.284Y154.922
X-14.694Y138.922
X-9.694Y136.822
X-5.284Y197.397
X-5.284Y178.397
X-5.284Y159.397
X-0.284Y195.297
X-0.284Y176.297
X-0.284Y157.297
X6.867Y136.994
X11.426Y134.057
X13.716Y195.022
X13.716Y176.022
X13.716Y157.022
X18.716Y192.922
X18.716Y173.922
X18.716Y154.922
X27.712Y131.399
X31.692Y127.716
X32.716Y154.647
X32.716Y192.647
X32.716Y173.647
X37.716Y171.547
X37.716Y190.547
X37.716Y152.547
X41.339Y124.77
X45.657Y128.05
X166.655Y124.77
X167.336Y119.39
X175.278Y192.647
X175.278Y173.647
X175.278Y154.647
X180.278Y190.547
X180.278Y171.547
X180.278Y152.547
X180.282Y131.399
X185.698Y131.136
X194.278Y195.022
X194.278Y176.022
X194.278Y157.022
X199.278Y192.922
X199.278Y173.922
X199.278Y154.922
X201.127Y136.994
X206.416Y135.794
X213.278Y197.397
X213.278Y178.397
X213.278Y159.397
X218.278Y195.297
X218.278Y176.297
X218.278Y157.297
X222.688Y138.922
X227.688Y136.822
X232.278Y195.022
X232.278Y176.022
X232.278Y157.022
X237.278Y192.922
X237.278Y173.922
X237.278Y154.922
X251.277Y190.272
X251.277Y171.272
X251.277Y152.272
X256.277Y188.172
X256.277Y169.172
X256.277Y150.172
X270.277Y190.272
X270.277Y171.272
X270.277Y152.272
X275.277Y188.172
X275.277Y169.172
X275.277Y150.172
T5
X-62.284Y184.372
X-62.284Y165.372
X-62.284Y146.372
X-43.284Y184.372
X-43.284Y165.372
X-43.284Y146.372
X-24.284Y189.122
X-24.284Y170.122
X-24.284Y151.122
X-14.694Y133.022
X-5.284Y191.497
X-5.284Y172.497
X-5.284Y153.497
X5.842Y131.183
X13.716Y189.122
X13.716Y170.122
X13.716Y151.122
X25.694Y125.855
X32.716Y186.747
X32.716Y167.747
X32.716Y148.747
X46.448Y121.82
X161.546Y121.82
X175.278Y186.747
X175.278Y167.747
X175.278Y148.747
X182.3Y125.855
X194.278Y189.122
X194.278Y170.122
X194.278Y151.122
X202.152Y131.183
X213.278Y191.497
X213.278Y172.497
X213.278Y153.497
X222.688Y133.022
X232.278Y189.122
X232.278Y170.122
X232.278Y151.122
X251.277Y184.372
X251.277Y165.372
X251.277Y146.372
X270.277Y184.372
X270.277Y165.372
X270.277Y146.372
M30
